# xmcd
#
# Track frame offsets:
#	150
#	17049
#	31955
#	54273
#	67179
#	83868
#	99313
#	117589
#	131880
#	143105
#	162016
#	174867
#	198388
#	216401
#	229031
#	249629
#
# Disc length: 3480 seconds
#
# Revision: 2
# Processed by: cddbd v1.5.2PL0 Copyright (c) Steve Scherf et al.
# Submitted via: audiograbber 1.83.01
#
DISCID=df0d9610
DTITLE=Chris Ledoux - Classic Chris Ledoux
DYEAR=2008
DGENRE=Country
TTITLE0=Life Is A Highway
TTITLE1=Horsepower
TTITLE2=Tougher Than The Rest
TTITLE3=Cadillac Ranch
TTITLE4=Five Dollar Fine
TTITLE5=For Your Love
TTITLE6=Honky Tonk World
TTITLE7=Look At You Girl
TTITLE8=Under This Old Hat
TTITLE9=This Cowboy's Hat
TTITLE10=He Rides Wild Horses
TTITLE11=Stampede
TTITLE12=Silence On The Line
TTITLE13=Workin' Man's Dollar
TTITLE14=Bang A Drum (With Jon Bon Jovi)
TTITLE15=Watcha Gonna Do With A Cowboy (With Garth Brooks)
EXTD=
EXTT0=
EXTT1=
EXTT2=
EXTT3=
EXTT4=
EXTT5=
EXTT6=
EXTT7=
EXTT8=
EXTT9=
EXTT10=
EXTT11=
EXTT12=
EXTT13=
EXTT14=
EXTT15=
PLAYORDER=
